<svg width="400" height="200" viewBox="0 0 400 200" xmlns="http://www.w3.org/2000/svg">
  <rect width="400" height="200" fill="white" />
  <!-- 居中的图标 -->
  <g transform="translate(150, 20) scale(1.2)">
    <path d="M50 10 L65 10 L70 20 L85 25 L85 40 L95 50 L85 60 L85 75 L70 80 L65 90 L50 90 L35 90 L30 80 L15 75 L15 60 L5 50 L15 40 L15 25 L30 20 L35 10 Z" fill="#2E7D32" />
    <circle cx="50" cy="50" r="25" fill="white" />
    <path d="M55 35 L40 55 L50 55 L45 75 L60 45 L50 45 Z" fill="#1976D2" />
  </g>
  <!-- 居中的文字 -->
  <text x="50%" y="170" text-anchor="middle" font-family="Arial, sans-serif" font-size="42" font-weight="bold" fill="#2E7D32">电动工程机械</text>
</svg>