<svg width="300" height="100" viewBox="0 0 300 100" xmlns="http://www.w3.org/2000/svg">
  <!-- 图标部分 -->
  <g transform="translate(10, 10) scale(0.8)">
    <path d="M50 10 L65 10 L70 20 L85 25 L85 40 L95 50 L85 60 L85 75 L70 80 L65 90 L50 90 L35 90 L30 80 L15 75 L15 60 L5 50 L15 40 L15 25 L30 20 L35 10 Z" fill="#2E7D32" />
    <circle cx="50" cy="50" r="25" fill="white" />
    <path d="M55 35 L40 55 L50 55 L45 75 L60 45 L50 45 Z" fill="#1976D2" />
  </g>
  <!-- 文字部分 -->
  <text x="100" y="65" font-family="Arial, sans-serif" font-size="36" font-weight="bold" fill="#2E7D32">电动工程机械</text>
</svg>